<?xml version="1.0" encoding="UTF-8"?>
<svg id="_图层_2" data-name="图层 2" xmlns="http://www.w3.org/2000/svg" xmlns:xlink="http://www.w3.org/1999/xlink" viewBox="0 0 247.51 73.65">
  <defs>
    <style>
      .cls-1 {
        mask: url(#mask);
      }

      .cls-2, .cls-3 {
        fill: #fff;
      }

      .cls-2, .cls-4 {
        fill-rule: evenodd;
      }

      .cls-4 {
        fill: #fbb03b;
      }
    </style>
    <mask id="mask" x="-2.45" y="-6.64" width="83.52" height="72.12" maskUnits="userSpaceOnUse">
      <g id="mask0_811_23311" data-name="mask0 811 23311">
        <path class="cls-2" d="M7.98-6.64L81.08,6.21l-10.42,59.27L-2.45,52.62,7.98-6.64Z"/>
      </g>
    </mask>
  </defs>
  <g id="_图层_1-2" data-name="图层 1">
    <g>
      <g>
        <path class="cls-3" d="M25.17,43.25c0-2.85.47-5.44,1.41-7.76.94-2.33,2.24-4.31,3.89-5.96s3.63-2.91,5.93-3.79c2.29-.89,4.82-1.33,7.56-1.33,2.78-.03,5.33.38,7.64,1.23,2.31.85,4.31,2.1,5.98,3.74,1.67,1.64,2.98,3.62,3.92,5.93.94,2.31,1.41,4.89,1.41,7.74s-.47,5.31-1.41,7.59c-.94,2.28-2.25,4.24-3.92,5.88-1.68,1.64-3.67,2.92-5.98,3.84-2.31.92-4.86,1.4-7.64,1.43-2.75,0-5.27-.44-7.56-1.33-2.3-.89-4.27-2.14-5.93-3.77s-2.96-3.58-3.89-5.86c-.94-2.28-1.41-4.81-1.41-7.59ZM31.81,42.85c0,1.91.29,3.67.88,5.28.59,1.61,1.42,3,2.49,4.17s2.35,2.09,3.84,2.76c1.49.67,3.16,1.01,5,1.01s3.52-.33,5.03-1.01c1.51-.67,2.8-1.59,3.87-2.76s1.9-2.56,2.49-4.17c.59-1.61.88-3.37.88-5.28,0-1.78-.29-3.43-.88-4.98-.59-1.54-1.42-2.89-2.49-4.05s-2.36-2.06-3.87-2.71-3.18-.98-5.03-.98-3.51.33-5,.98c-1.49.65-2.77,1.56-3.84,2.71s-1.9,2.5-2.49,4.05-.88,3.2-.88,4.98Z"/>
        <path class="cls-3" d="M65.88,36.76h5.73v3.62h.1c.87-1.47,2.04-2.55,3.52-3.22,1.47-.67,3.07-1,4.77-1,1.84,0,3.5.33,4.98.98,1.47.65,2.73,1.55,3.77,2.69,1.04,1.14,1.83,2.48,2.36,4.02s.8,3.2.8,4.98-.29,3.43-.85,4.98c-.57,1.54-1.37,2.88-2.39,4.02-1.02,1.14-2.25,2.04-3.69,2.69-1.44.65-3.02.98-4.72.98-1.14,0-2.14-.12-3.02-.35s-1.64-.54-2.31-.9c-.67-.37-1.24-.76-1.71-1.18s-.85-.83-1.16-1.23h-.15v14.52h-6.03v-35.58ZM85.88,48.83c0-.94-.16-1.84-.48-2.71s-.79-1.64-1.41-2.31-1.37-1.21-2.24-1.61c-.87-.4-1.86-.6-2.96-.6s-2.09.2-2.97.6c-.87.4-1.62.94-2.24,1.61s-1.09,1.44-1.41,2.31-.48,1.78-.48,2.71.16,1.84.48,2.71.79,1.64,1.41,2.31c.62.67,1.37,1.21,2.24,1.61s1.86.6,2.97.6,2.09-.2,2.96-.6,1.62-.94,2.24-1.61c.62-.67,1.09-1.44,1.41-2.31s.48-1.78.48-2.71Z"/>
        <path class="cls-3" d="M99.85,50.94c.2,1.81.91,3.22,2.11,4.22s2.66,1.51,4.37,1.51c1.51,0,2.77-.31,3.79-.93,1.02-.62,1.92-1.4,2.69-2.34l4.32,3.27c-1.41,1.74-2.98,2.98-4.72,3.72-1.74.74-3.57,1.11-5.48,1.11-1.81,0-3.52-.3-5.13-.91-1.61-.6-3-1.46-4.17-2.56-1.17-1.11-2.1-2.44-2.79-4-.69-1.56-1.03-3.29-1.03-5.2s.34-3.64,1.03-5.2c.69-1.56,1.62-2.89,2.79-4,1.17-1.11,2.56-1.96,4.17-2.56,1.61-.6,3.32-.9,5.13-.9,1.67,0,3.21.29,4.6.88s2.58,1.43,3.57,2.54c.99,1.11,1.76,2.47,2.31,4.1s.83,3.49.83,5.6v1.66h-18.39ZM112.22,46.41c-.03-1.78-.59-3.17-1.66-4.2-1.07-1.02-2.56-1.53-4.47-1.53-1.81,0-3.24.52-4.3,1.56-1.06,1.04-1.7,2.43-1.94,4.17h12.36Z"/>
        <path class="cls-3" d="M121.36,36.76h5.73v3.87h.1c.57-1.21,1.44-2.25,2.61-3.14,1.17-.89,2.77-1.33,4.78-1.33,1.61,0,2.97.27,4.1.8s2.04,1.24,2.74,2.11c.71.87,1.21,1.88,1.51,3.02.3,1.14.45,2.33.45,3.57v15.23h-6.03v-12.21c0-.67-.03-1.42-.1-2.24-.07-.82-.24-1.59-.53-2.31-.29-.72-.73-1.32-1.33-1.81-.6-.49-1.43-.73-2.46-.73s-1.85.17-2.54.5c-.69.33-1.26.79-1.71,1.36-.45.57-.78,1.22-.98,1.96-.2.74-.3,1.51-.3,2.31v13.17h-6.03v-24.12Z"/>
        <path class="cls-3" d="M144.43,36.76h6.58l6.43,16.89h.1l6.48-16.89h6.18l-9.5,24.12h-6.43l-9.85-24.12Z"/>
        <path class="cls-3" d="M186.35,57.57h-.15c-.87,1.38-1.98,2.37-3.32,2.99-1.34.62-2.81.93-4.42.93-1.11,0-2.19-.15-3.24-.45-1.05-.3-1.99-.75-2.81-1.36-.82-.6-1.48-1.36-1.98-2.26-.5-.9-.75-1.96-.75-3.17,0-1.31.23-2.42.7-3.34.47-.92,1.1-1.69,1.88-2.31.79-.62,1.7-1.11,2.74-1.48,1.04-.37,2.12-.64,3.24-.83,1.12-.18,2.25-.3,3.39-.35,1.14-.05,2.21-.08,3.22-.08h1.51v-.65c0-1.51-.52-2.64-1.56-3.39-1.04-.75-2.36-1.13-3.97-1.13-1.27,0-2.46.23-3.57.68-1.11.45-2.06,1.06-2.87,1.83l-3.17-3.17c1.34-1.37,2.91-2.36,4.7-2.97,1.79-.6,3.64-.9,5.55-.9,1.71,0,3.15.19,4.32.58,1.17.39,2.14.88,2.92,1.48.77.6,1.37,1.3,1.78,2.09s.72,1.58.91,2.39c.18.8.29,1.58.33,2.34.03.75.05,1.42.05,1.99v13.87h-5.43v-3.32ZM185.99,50.08h-1.26c-.84,0-1.78.03-2.81.1-1.04.07-2.02.23-2.94.48-.92.25-1.7.62-2.34,1.11-.64.49-.96,1.17-.96,2.04,0,.57.13,1.05.38,1.43.25.39.58.71.98.98.4.27.85.46,1.36.58.5.12,1.01.18,1.51.18,2.08,0,3.61-.49,4.6-1.48s1.48-2.34,1.48-4.05v-1.36Z"/>
        <path class="cls-3" d="M217.76,60.89h-5.73v-3.87h-.1c-.57,1.21-1.44,2.25-2.61,3.14-1.17.89-2.76,1.33-4.77,1.33-1.61,0-2.97-.26-4.1-.78-1.12-.52-2.04-1.22-2.74-2.11-.7-.89-1.21-1.9-1.51-3.04-.3-1.14-.45-2.33-.45-3.57v-15.23h6.03v12.21c0,.67.03,1.42.1,2.24.07.82.24,1.59.53,2.31.28.72.72,1.32,1.31,1.81.59.49,1.42.73,2.49.73,1,0,1.85-.17,2.54-.5.69-.33,1.26-.79,1.71-1.36.45-.57.78-1.22.98-1.96.2-.74.3-1.51.3-2.31v-13.17h6.03v24.12Z"/>
        <path class="cls-3" d="M222.18,22.89h6.03v37.99h-6.03V22.89Z"/>
        <path class="cls-3" d="M229.87,41.89v-5.13h4.97v-6.99h6.03v6.99h6.63v5.13h-6.63v10.55c0,1.21.23,2.16.68,2.87.45.7,1.35,1.05,2.69,1.05.54,0,1.12-.06,1.76-.18.64-.12,1.14-.31,1.51-.58v5.08c-.64.3-1.42.51-2.34.63-.92.12-1.73.18-2.44.18-1.61,0-2.92-.18-3.95-.53-1.02-.35-1.83-.89-2.41-1.61-.59-.72-.99-1.62-1.21-2.69-.22-1.07-.33-2.31-.33-3.72v-11.06h-4.97Z"/>
      </g>
      <g class="cls-1">
        <path class="cls-4" d="M6.5,51.93c-1.35-5.06-1.64-10.5-.68-16C9.36,15.79,28.45,2.33,48.45,5.85c11.14,1.96,20.21,8.77,25.45,17.9l4.55-2.65C72.47,10.66,62.1,2.88,49.37.64,26.51-3.38,4.7,12.01.65,35.01c-1.11,6.29-.77,12.5.77,18.29l5.08-1.38Z"/>
      </g>
      <path class="cls-4" d="M51.77,66.83c-12.93,4.76-27.3-1.93-32.09-14.94-4.79-13.01,1.8-27.43,14.74-32.19,7.2-2.65,14.85-1.75,21.04,1.81l2.6-4.58c-7.49-4.31-16.75-5.4-25.47-2.19-15.65,5.77-23.64,23.21-17.84,38.97s23.2,23.85,38.85,18.09l-1.83-4.96Z"/>
    </g>
  </g>
</svg>