<svg xmlns="http://www.w3.org/2000/svg" viewBox="0 0 579.18 187.01"><defs><style>.cls-1{fill:#e7cca3;}</style></defs><g id="图层_2" data-name="图层 2"><g id="_图层_" data-name="&lt;图层&gt;"><path class="cls-1" d="M579.11,127.45l-7.91-3.71a92.27,92.27,0,0,1-53.56,55.51l4,7.76A101.27,101.27,0,0,0,579.11,127.45Zm-42.38-19.87-7.94-3.72a46.13,46.13,0,0,1-32.7,33.7l4,7.83A55,55,0,0,0,536.73,107.58Zm20.66,9.69-7.92-3.72a68.71,68.71,0,0,1-42.87,44.34l4,7.79A77.83,77.83,0,0,0,557.39,117.27ZM571.26,63l7.92-3.68A101.36,101.36,0,0,0,522.81.06l-4.18,7.63A92.43,92.43,0,0,1,571.26,63ZM549.5,73.12l7.93-3.69A78,78,0,0,0,511.3,21.11l-4.22,7.73A68.76,68.76,0,0,1,549.5,73.12Zm-20.7,9.63,8-3.7A55,55,0,0,0,500.3,41.23L496.06,49A46.13,46.13,0,0,1,528.8,82.75Zm-109.66,32-7.77,4.14a78.1,78.1,0,0,0,46,46.71l4.08-7.77A68.94,68.94,0,0,1,419.14,114.76ZM397.9,126.09l-7.7,4.11a101.7,101.7,0,0,0,56,56.67l4.06-7.72A92.69,92.69,0,0,1,397.9,126.09Zm41.56-22.17-7.81,4.16A55.08,55.08,0,0,0,468,145.37l4.1-7.81a46.16,46.16,0,0,1-32.68-33.64Zm-28-36.58,7.71,4.23a69,69,0,0,1,42-42.75L457,21.09A77.06,77.06,0,0,0,411.5,67.34Zm20.17,11.07,7.78,4.27A46.16,46.16,0,0,1,472.18,49L468,41.22A55.14,55.14,0,0,0,431.67,78.41ZM390.44,55.78,398.1,60A92.76,92.76,0,0,1,449.71,7.65L445.56,0A101.8,101.8,0,0,0,390.44,55.78Z"/><path class="cls-1" d="M222.9,43.08c-28.57,0-52.11,22-52.11,50.42s23.54,50.43,52.11,50.43c22.41,0,41.46-12.7,48.56-31.56H250.54c-5.41,9.15-16.25,14.75-27.64,14.75-16.25,0-29.88-12.14-32.68-27.45h84.23c.19-2.06.37-4.11.37-6.17C274.82,65.11,251.66,43.08,222.9,43.08ZM190.78,84.54c3.92-14,17-24.65,32.12-24.65,15.5,0,28,10.64,32.13,24.65ZM342.32,43.08A46.49,46.49,0,0,0,308.7,57.64V14.13H290v127H308V127.31c7.85,10.64,21.11,16.62,34.37,16.62,28.57,0,52.11-21.85,52.11-50.43S370.89,43.08,342.32,43.08Zm-.38,84A33.62,33.62,0,1,1,375.75,93.5,33.76,33.76,0,0,1,341.94,127.12ZM162,14.13,126,107,93.78,17.09H88.94L56.78,107l-36-92.88H0l51.67,129.8h11.4L91.36,62.72l28.8,81.21h10.9l51.67-129.8Z"/><path class="cls-1" d="M484,55.31a37.34,37.34,0,1,0,37.34,37.33A37.33,37.33,0,0,0,484,55.31ZM498,109.4a13.11,13.11,0,0,1-1.34,5.39,10.65,10.65,0,0,1-6.06,5.11,25.23,25.23,0,0,1-11,1.34,22.32,22.32,0,0,1-2.87-.48l-1.31-.27-1.06-.39c-.91-.32-1.85-.66-2.74-1a9.75,9.75,0,0,1-1.22-.65l-.6-.35c-.42-.3-.85-.59-1.29-.89-.94-.64-1.91-1.3-2.76-2a29.8,29.8,0,0,1-6.77-7.93c-.07-.11-.12-.22-.18-.33l-1.89-4a26.14,26.14,0,0,1-1.79-8.22,27.37,27.37,0,0,1,1.28-10.94l.8-2.19.75-1.69a30.78,30.78,0,0,1,7-9.18c.62-.56,1.28-1.07,2-1.63l.9-.7,1.94-1.26a21.49,21.49,0,0,1,4.16-2,17,17,0,0,0-2.61,3.34,15.14,15.14,0,0,0-2,6,21.39,21.39,0,0,0,.22,7.42A15,15,0,0,0,476,91a20.26,20.26,0,0,0,4.35,2.25l.11,0c.89.27,1.79.54,2.74.81,2,.59,4.08,1.19,6,2a13.81,13.81,0,0,1,6.07,4.35A13.09,13.09,0,0,1,498,109.4Z"/></g></g></svg>